<svg xmlns="http://www.w3.org/2000/svg" viewBox="0 0 2728.98 1891.35"><defs><style>.cls-1{fill:#2e3192;}.cls-2{fill:#ed1c24;}.cls-3{fill:#00a651;}.cls-4{fill:#27aae1;}.cls-5{fill:#8dc63f;}.cls-6{fill:#00a79d;}.cls-7{fill:#f7941d;}.cls-8{fill:#662d91;}.cls-9{fill:#fff200;}.cls-10{fill:#8b5e3c;}.cls-11{fill:#ec008c;}.cls-12{fill:#1c75bc;}.cls-13{fill:#231f20;}.cls-14{fill:#006838;}.cls-15{fill:#f15a29;}.cls-16{fill:#001e43;}</style></defs><g id="Layer_2" data-name="Layer 2"><g id="Layer_1-2" data-name="Layer 1"><rect class="cls-1" x="984.78" y="245.57" width="194.95" height="194.95" rx="68"/><rect class="cls-2" x="1476.64" y="163.49" width="194.95" height="194.95" rx="68"/><rect class="cls-3" x="1456.12" y="711.78" width="194.95" height="194.95" rx="68"/><rect class="cls-4" x="1179.72" y="504.65" width="194.95" height="194.95" rx="68"/><rect class="cls-5" x="836.53" y="574.43" width="101.54" height="101.54" rx="30.67"/><rect class="cls-6" x="1277.2" y="245.57" width="101.54" height="101.54" rx="30.67"/><rect class="cls-7" x="1472.57" y="466.06" width="101.54" height="101.54" rx="30.67"/><rect class="cls-8" x="1031.48" y="610.24" width="101.54" height="101.54" rx="30.67"/><rect class="cls-9" x="1238.72" y="825.28" width="101.54" height="101.54" rx="30.67"/><rect class="cls-2" x="1431" y="966.9" width="101.54" height="101.54" rx="30.67"/><rect class="cls-10" x="1229.37" y="1025.63" width="40.51" height="40.51" rx="13.42"/><rect class="cls-11" x="1313.9" y="1083.08" width="40.51" height="40.51" rx="13.42"/><rect class="cls-12" x="1452.31" y="625.21" width="40.51" height="40.51" rx="13.42"/><rect class="cls-9" x="1671.32" y="604.95" width="40.51" height="40.51" rx="13.42"/><rect class="cls-13" x="1218.47" y="171.87" width="40.51" height="40.51" rx="13.42"/><rect class="cls-14" x="1041.74" y="496.57" width="40.51" height="40.51" rx="13.42"/><rect class="cls-12" x="1344.47" y="409.45" width="40.51" height="40.51" rx="13.42"/><rect class="cls-10" x="1354.42" y="740.35" width="40.51" height="40.51" rx="13.42"/><rect class="cls-9" x="1164.6" y="760.6" width="40.51" height="40.51" rx="13.42"/><rect class="cls-15" x="984.78" y="764.68" width="40.51" height="40.51" rx="13.42"/><rect class="cls-11" x="984.78" y="850.94" width="194.95" height="194.95" rx="68"/><path class="cls-16" d="M752,465.69C752,556.84,725,601,652.32,619.5,725,636.59,752,680.74,752,771.88v233.56c0,71.21,34.18,101.11,135.29,101.11v131H826.06c-159.5,0-222.16-49.84-222.16-182.29V761.91c0-54.11-18.51-75.48-61.24-75.48H498.51V551.14h44.15c42.73,0,61.24-21.36,61.24-75.48V180.87C603.9,49.84,666.56,0,826.06,0H887.3V131C786.19,131,752,160.93,752,232.13Z"/><path class="cls-16" d="M2100.62,686.43h-44.15c-42.72,0-61.23,21.37-61.23,75.48v293.37c0,132.45-62.67,182.29-222.17,182.29h-61.24v-131c101.12,0,135.3-29.9,135.3-101.11V771.88c0-91.14,27-135.29,99.69-153.81-72.64-17.09-99.69-61.23-99.69-152.38V232.13c0-71.2-34.18-101.11-135.3-101.11V0h61.24c159.5,0,222.17,49.84,222.17,180.87V475.66c0,54.12,18.51,75.48,61.23,75.48h44.15Z"/><path class="cls-16" d="M279.71,1592.78H86.37l-33.75,64.59H0l153.3-291.09h58.91l153.87,291.09H313.46Zm-179.61-32.3H265.41L183,1398.57Z"/><path class="cls-16" d="M415.84,1366.28h153.3c76.65,0,119.55,40.15,119.55,87.72s-44.05,87.72-119.55,87.72H463.31v115.65H415.84Zm147.58,32.29H463.31v110.85H563.42c45.18,0,76.07-22.69,76.07-55.42S608.6,1398.57,563.42,1398.57Z"/><path class="cls-16" d="M751.6,1366.28H904.89c76.65,0,119.55,40.15,119.55,87.72s-44,87.72-119.55,87.72H799.07v115.65H751.6Zm147.57,32.29H799.07v110.85h100.1c45.19,0,76.08-22.69,76.08-55.42S944.36,1398.57,899.17,1398.57Z"/><path class="cls-16" d="M1282.41,1422.58v234.79h-47.48V1366.28h48.62l219.65,230v-230h47.48v291.09h-45.76Z"/><path class="cls-16" d="M1880.14,1592.78H1686.81l-33.75,64.59h-52.63l153.3-291.09h58.92l153.87,291.09h-52.63Zm-179.61-32.3h165.31l-82.37-161.91Z"/><path class="cls-16" d="M2342.31,1415.16l-129.84,242.21H2193l-129.27-242.21v242.21h-47.48V1366.28h68.07L2202.75,1588l119-221.7h68.07v291.09h-47.48Z"/><path class="cls-16" d="M2479,1366.28h250v32.29H2526.49v93.83H2725v32.3H2526.49v100.37H2729v32.3H2479Z"/><path class="cls-13" d="M620.5,1862.14h-48L564.13,1889H551.07l38-121h14.62l38.2,121H628.87Zm-44.59-13.43h41l-20.45-67.32Z"/><path class="cls-13" d="M687.09,1828.57c0-37.2,21.44-62.6,48.27-62.6,17.18,0,28.83,10.34,36.35,24l-9.94,7.08c-5.39-10.17-15.19-17.61-26.41-17.61-20.3,0-36.06,20.33-36.06,49.18,0,28.67,15.76,49.17,36.06,49.17,11.22,0,21-7.25,26.41-17.6l10.08,7.08c-8,13.79-19.31,24-36.49,24C708.53,1891.17,687.09,1865.77,687.09,1828.57Z"/><path class="cls-13" d="M830.07,1766c28,0,47,26.85,47,62.6s-19,62.6-47,62.6-47-26.85-47-62.6S802,1766,830.07,1766Zm0,13.42c-21.3,0-34.79,20.87-34.79,49.18,0,28.12,13.49,49.17,34.79,49.17s34.79-21,34.79-49.17C864.86,1800.26,851.23,1779.39,830.07,1779.39Z"/><path class="cls-13" d="M895.53,1768H927.9c29.39,0,48.56,26.31,48.56,60.61,0,34.48-19.17,60.42-48.56,60.42H895.53Zm32.37,107.61c23,0,36.35-21,36.35-47,0-26.13-12.92-47.18-36.35-47.18H907.31v94.18Z"/><path class="cls-13" d="M994.92,1768h11.79v121H994.92Z"/><path class="cls-13" d="M1040.64,1791.37V1889h-11.78V1768h12.07l54.52,95.63V1768h11.78v121h-11.36Z"/><path class="cls-13" d="M1174.25,1766c16.76,0,28.4,9.43,36.77,22.68l-9.37,7.44c-6-9.8-16-16.7-27.4-16.7-20.73,0-36.49,20.33-36.49,49.18,0,28.67,15.76,49.35,36.49,49.35,11.36,0,20.73-7.07,25.42-13.06v-24.68h-32.52v-13.43h44.3v43.74c-8.8,12.52-21.72,20.86-37.2,20.86-27,0-48.7-25.22-48.7-62.78S1147.27,1766,1174.25,1766Z"/><path class="cls-13" d="M1263.42,1828.57c0-37.2,21.44-62.6,48.28-62.6,17.18,0,28.82,10.34,36.34,24l-9.94,7.08c-5.39-10.17-15.19-17.61-26.4-17.61-20.31,0-36.07,20.33-36.07,49.18,0,28.67,15.76,49.17,36.07,49.17,11.21,0,21-7.25,26.4-17.6l10.08,7.08c-8,13.79-19.3,24-36.48,24C1284.86,1891.17,1263.42,1865.77,1263.42,1828.57Z"/><path class="cls-13" d="M1430.4,1833.47H1375V1889h-11.78V1768H1375V1820h55.38V1768h11.78v121H1430.4Z"/><path class="cls-13" d="M1524,1862.14h-48L1467.6,1889h-13.06l38-121h14.62l38.2,121h-13.07Zm-44.59-13.43h41L1500,1781.39Z"/><path class="cls-13" d="M1557.76,1768h11.79v107.61h44V1889h-55.8Z"/><path class="cls-13" d="M1630.17,1768H1642v107.61h44V1889h-55.8Z"/><path class="cls-13" d="M1702.59,1768h62.05v13.43h-50.27v39h49.27v13.43h-49.27v41.74h50.27V1889h-62.05Z"/><path class="cls-13" d="M1795.16,1791.37V1889h-11.78V1768h12.07l54.52,95.63V1768h11.78v121h-11.36Z"/><path class="cls-13" d="M1928.77,1766c16.76,0,28.4,9.43,36.78,22.68l-9.37,7.44c-6-9.8-16-16.7-27.41-16.7-20.73,0-36.49,20.33-36.49,49.18,0,28.67,15.76,49.35,36.49,49.35,11.36,0,20.73-7.07,25.42-13.06v-24.68h-32.52v-13.43H1966v43.74c-8.8,12.52-21.72,20.86-37.2,20.86-27,0-48.7-25.22-48.7-62.78S1901.8,1766,1928.77,1766Z"/><path class="cls-13" d="M1985.14,1768h62v13.43h-50.26v39h49.27v13.43h-49.27v41.74h50.26V1889h-62Z"/></g></g></svg>