<?xml version="1.0" encoding="UTF-8" standalone="no"?>
<svg
   width="313.95627"
   zoomAndPan="magnify"
   viewBox="0 0 235.4672 28.473143"
   height="37.964191"
   preserveAspectRatio="xMidYMid"
   version="1.0"
   id="svg31"
   sodipodi:docname="6.svg"
   inkscape:version="1.3 (0e150ed6c4, 2023-07-21)"
   xmlns:inkscape="http://www.inkscape.org/namespaces/inkscape"
   xmlns:sodipodi="http://sodipodi.sourceforge.net/DTD/sodipodi-0.dtd"
   xmlns="http://www.w3.org/2000/svg"
   xmlns:svg="http://www.w3.org/2000/svg">
  <sodipodi:namedview
     id="namedview31"
     pagecolor="#505050"
     bordercolor="#ffffff"
     borderopacity="1"
     inkscape:showpageshadow="0"
     inkscape:pageopacity="0"
     inkscape:pagecheckerboard="1"
     inkscape:deskcolor="#505050"
     inkscape:zoom="1.642"
     inkscape:cx="156.21194"
     inkscape:cy="14.311815"
     inkscape:window-width="1920"
     inkscape:window-height="1017"
     inkscape:window-x="1912"
     inkscape:window-y="-8"
     inkscape:window-maximized="1"
     inkscape:current-layer="svg31" />
  <defs
     id="defs1">
    <g
       id="g1" />
  </defs>
  <g
     fill="#ffffff"
     fill-opacity="1"
     id="g4"
     transform="translate(-70.117271,-176.82114)">
    <g
       transform="translate(70.117271,205.29428)"
       id="g3">
      <g
         id="g2">
        <path
           d="M 5.871094,-18.148438 V -0.320312 C 5.871094,-0.179688 6.015625,0 6.261719,0 h 4.59375 c 0.25,0 0.425781,-0.179688 0.425781,-0.320312 V -18.148438 Z M 0.390625,-23.59375 h 16.335937 c 0.25,0 0.390626,-0.144531 0.390626,-0.320312 v -4.238282 c 0,-0.140625 -0.140626,-0.320312 -0.390626,-0.320312 H 0.390625 C 0.179688,-28.472656 0,-28.292969 0,-28.152344 v 4.238282 c 0,0.175781 0.179688,0.320312 0.390625,0.320312 z m 0,0"
           id="path1" />
      </g>
    </g>
  </g>
  <g
     fill="#ffffff"
     fill-opacity="1"
     id="g7"
     transform="translate(-70.117271,-176.82114)">
    <g
       transform="translate(88.089496,205.29428)"
       id="g6">
      <g
         id="g5">
        <path
           d="m 5.445312,-16.121094 v -12.03125 c 0,-0.140625 -0.144531,-0.320312 -0.390624,-0.320312 H 0.390625 C 0.179688,-28.472656 0,-28.292969 0,-28.152344 v 12.03125 z M 21.28125,-28.472656 h -4.660156 c -0.214844,0 -0.394532,0.179687 -0.394532,0.320312 v 17.511719 H 5.445312 v -0.03516 H 0 V -0.320312 C 0,-0.179688 0.179688,0 0.390625,0 h 4.664063 c 0.246093,0 0.390624,-0.179688 0.390624,-0.320312 v -5.019532 h 10.78125 v 5.019532 C 16.226562,-0.179688 16.40625,0 16.621094,0 h 4.660156 c 0.25,0 0.390625,-0.179688 0.390625,-0.320312 v -27.832032 c 0,-0.140625 -0.140625,-0.320312 -0.390625,-0.320312 z m 0,0"
           id="path4" />
      </g>
    </g>
  </g>
  <g
     fill="#ffffff"
     fill-opacity="1"
     id="g10"
     transform="translate(-70.117271,-176.82114)">
    <g
       transform="translate(110.86618,205.29428)"
       id="g9">
      <g
         id="g8">
        <path
           d="m 16.371094,-14.164062 c 0,-1.496094 -1.175782,-2.703126 -2.667969,-2.703126 -1.496094,0 -2.671875,1.207032 -2.671875,2.703126 0,1.457031 1.175781,2.667968 2.671875,2.667968 1.492187,0 2.667969,-1.210937 2.667969,-2.667968 z m 11.03125,-0.105469 c 0,-7.082031 -4.589844,-14.203125 -13.664063,-14.203125 C 4.519531,-28.472656 0,-21.351562 0,-14.269531 0,-7.152344 4.519531,0 13.738281,0 22.8125,0 27.402344,-7.152344 27.402344,-14.269531 Z m -5.335938,0.105469 c 0,4.589843 -2.8125,9.183593 -8.328125,9.183593 -5.589843,0 -8.363281,-4.59375 -8.363281,-9.183593 0,-4.664063 2.773438,-9.289063 8.363281,-9.289063 5.515625,0 8.328125,4.625 8.328125,9.289063 z m 0,0"
           id="path7" />
      </g>
    </g>
  </g>
  <g
     fill="#ffffff"
     fill-opacity="1"
     id="g13"
     transform="translate(-70.117271,-176.82114)">
    <g
       transform="translate(139.62174,205.29428)"
       id="g12">
      <g
         id="g11">
        <path
           d="m 25.480469,-6.867188 h 5.410156 v -21.285156 c 0,-0.140625 -0.140625,-0.320312 -0.390625,-0.320312 h -4.699219 c -0.140625,0 -0.320312,0.109375 -0.390625,0.214844 L 15.695312,-7.402344 5.480469,-28.257812 c -0.035157,-0.105469 -0.25,-0.214844 -0.355469,-0.214844 H 0.355469 C 0.105469,-28.472656 0,-28.292969 0,-28.152344 V -0.320312 C 0,-0.179688 0.105469,0 0.355469,0 h 4.699219 c 0.210937,0 0.390624,-0.179688 0.390624,-0.320312 v -15.980469 l 7.722657,14.949219 c 0.03516,0.105468 0.25,0.210937 0.355469,0.210937 h 4.378906 c 0.105468,0 0.285156,-0.105469 0.320312,-0.210937 l 7.257813,-14.554688 z m 0,0"
           id="path10" />
      </g>
    </g>
  </g>
  <g
     fill="#ffffff"
     fill-opacity="1"
     id="g16"
     transform="translate(-70.117271,-176.82114)">
    <g
       transform="translate(172.07851,205.29428)"
       id="g15">
      <g
         id="g14">
        <path
           d="M 22.351562,-0.425781 11.53125,-28.257812 c -0.105469,-0.285157 -0.605469,-0.285157 -0.710938,0 L 0.0351562,-0.425781 C -0.0703125,-0.214844 0.0703125,0 0.390625,0 h 4.875 c 0.144531,0 0.320313,-0.0703125 0.355469,-0.214844 l 5.554687,-15.871094 5.621094,15.871094 C 16.832031,-0.0703125 17.011719,0 17.117188,0 h 4.914062 c 0.246094,0 0.425781,-0.214844 0.320312,-0.425781 z m 0,0"
           id="path13" />
      </g>
    </g>
  </g>
  <g
     fill="#ffffff"
     fill-opacity="1"
     id="g19"
     transform="translate(-70.117271,-176.82114)">
    <g
       transform="translate(195.56697,205.29428)"
       id="g18">
      <g
         id="g17">
        <path
           d="m 13.0625,-15.800781 c -2.03125,-0.960938 -4.023438,-0.960938 -4.199219,-0.960938 -1.816406,0 -3.5625,-1.066406 -3.5625,-3.132812 0,-2.277344 1.601563,-3.453125 3.5625,-3.453125 1.847657,0 3.414063,0.960937 3.484375,2.992187 0,0.105469 0.179688,0.285157 0.394532,0.285157 H 17.1875 c 0.25,0 0.429688,-0.179688 0.394531,-0.285157 -0.07422,-4.839843 -3.84375,-8.117187 -8.71875,-8.117187 -4.558593,0 -8.863281,3.242187 -8.863281,8.578125 0,3.308593 1.671875,5.835937 4.625,7.1875 2.066406,0.960937 3.988281,0.960937 4.238281,0.960937 1.601563,0.07422 3.558594,1.355469 3.558594,3.453125 0,1.886719 -1.675781,3.167969 -3.558594,3.167969 0,0 0,0 -0.039062,0 V 0 c 0.039062,0 0.039062,0 0.039062,0 4.554688,0 8.824219,-2.953125 8.824219,-8.292969 0,-3.34375 -1.636719,-6.121093 -4.625,-7.507812 z m 0,0"
           id="path16" />
      </g>
    </g>
  </g>
  <g
     fill="#ffffff"
     fill-opacity="1"
     id="g22"
     transform="translate(-70.117271,-176.82114)">
    <g
       transform="translate(234.65657,205.29428)"
       id="g21">
      <g
         id="g20">
        <path
           d="m 13.878906,-20 c 0,3.132812 -4.199218,3.132812 -4.199218,3.132812 H 5.410156 v -6.515624 h 4.269532 c 0,0 4.199218,-0.03516 4.199218,3.382812 z m 5.445313,-0.320312 c 0,-8.363282 -9.644531,-8.152344 -9.644531,-8.152344 H 0.390625 C 0.179688,-28.472656 0,-28.292969 0,-28.152344 v 16.585938 h 9.679688 c 0,0 4.589843,-0.214844 4.589843,3.132812 0,2.738282 -2.808593,3.238282 -4.589843,3.238282 H 5.445312 V 0 h 4.234376 c 1.921874,0 10.035156,-0.355469 10.035156,-8.292969 0,0 0.179687,-4.414062 -4.339844,-5.941406 2.171875,-0.890625 3.949219,-2.777344 3.949219,-6.085937 z m 0,0"
           id="path19" />
      </g>
    </g>
  </g>
  <g
     fill="#ffffff"
     fill-opacity="1"
     id="g25"
     transform="translate(-70.117271,-176.82114)">
    <g
       transform="translate(255.36912,205.29428)"
       id="g24">
      <g
         id="g23">
        <path
           d="M 13.523438,-5.300781 H 5.445312 v -6.40625 h 11.175782 c 0.210937,0 0.390625,-0.179688 0.390625,-0.320313 v -4.519531 c 0,-0.179687 -0.179688,-0.320313 -0.390625,-0.320313 H 5.445312 v -6.441406 h 8.078126 v -5.164062 H 0.390625 C 0.179688,-28.472656 0,-28.292969 0,-28.152344 V -0.320312 C 0,-0.179688 0.179688,0 0.390625,0 h 13.132813 z m 0,0"
           id="path22" />
      </g>
    </g>
  </g>
  <g
     fill="#ffffff"
     fill-opacity="1"
     id="g28"
     transform="translate(-70.117271,-176.82114)">
    <g
       transform="translate(273.23458,205.29428)"
       id="g27">
      <g
         id="g26">
        <path
           d="M 15.375,-5.300781 H 0 v 4.980469 C 0,-0.179688 0.179688,0 0.390625,0 H 15.375 c 0.25,0 0.390625,-0.179688 0.390625,-0.320312 v -4.625 C 15.765625,-5.125 15.625,-5.300781 15.375,-5.300781 Z m -9.929688,-5.445313 v -17.40625 c 0,-0.140625 -0.144531,-0.320312 -0.355468,-0.320312 H 0.390625 C 0.179688,-28.472656 0,-28.292969 0,-28.152344 v 17.40625 z m 0,0"
           id="path25" />
      </g>
    </g>
  </g>
  <g
     fill="#ffffff"
     fill-opacity="1"
     id="g31"
     transform="translate(-70.117271,-176.82114)">
    <g
       transform="translate(289.81885,205.29428)"
       id="g30">
      <g
         id="g29">
        <path
           d="M 15.375,-5.300781 H 0 v 4.980469 C 0,-0.179688 0.179688,0 0.390625,0 H 15.375 c 0.25,0 0.390625,-0.179688 0.390625,-0.320312 v -4.625 C 15.765625,-5.125 15.625,-5.300781 15.375,-5.300781 Z m -9.929688,-5.445313 v -17.40625 c 0,-0.140625 -0.144531,-0.320312 -0.355468,-0.320312 H 0.390625 C 0.179688,-28.472656 0,-28.292969 0,-28.152344 v 17.40625 z m 0,0"
           id="path28" />
      </g>
    </g>
  </g>
</svg>
